<svg xmlns="http://www.w3.org/2000/svg" xmlns:xlink="http://www.w3.org/1999/xlink" viewBox="0 0 32 32" width="32" height="32" style="" filter="none">
    
    <g>
    <path d="M10.272 22.112h18.304c-2.132 4.339-6.307 7.386-11.235 7.899l-0.061 0.005h-2.56c-1.643-0.166-3.15-0.586-4.537-1.221l0.089 0.037v-6.72zM21.76 3.264c-1.824-0.832-3.744-1.28-5.76-1.28-1.664 0-3.296 0.352-4.896 0.928 0.384 0.352 10.208 9.248 10.656 9.696v-9.344zM9.632 3.552c-4.704 2.432-7.616 7.2-7.616 12.48 0 1.184 0.16 2.432 0.48 3.648 0.384-0.352 12.192-11.072 12.416-11.296-0.224-0.224-5.12-4.672-5.28-4.832zM8.8 28v-12.064c-0.48 0.448-5.632 5.12-5.792 5.28 1.172 2.876 3.185 5.208 5.73 6.749l0.062 0.035zM23.264 4.064v16.576h5.952c0.512-1.504 0.8-3.040 0.8-4.608 0-4.864-2.592-9.44-6.752-11.968z" fill="rgba(195,128,99,0.98)"></path>
    </g>
  </svg>