<svg xmlns="http://www.w3.org/2000/svg" xmlns:xlink="http://www.w3.org/1999/xlink" viewBox="0 0 32 32" width="24" height="24" style="" filter="none">
    
    <g>
    <path d="M28 16l-4-4h-4v-4h-16v18h3c0 1.6 1.4 3 3 3s3-1.4 3-3h8c0 1.6 1.4 3 3 3s3-1.4 3-3h3v-8l-2-2zM10 27c-0.6 0-1-0.4-1-1s0.4-1 1-1 1 0.4 1 1-0.4 1-1 1zM18 12v12h-5.8c-0.6-0.6-1.4-1-2.2-1s-1.6 0.4-2.2 1h-1.8v-14h12v2zM24 27c-0.6 0-1-0.4-1-1s0.4-1 1-1 1 0.4 1 1-0.4 1-1 1zM28 24h-1.8c-0.6-0.6-1.4-1-2.2-1s-1.6 0.4-2.2 1h-1.8v-10h3.2l2 2h-3.2v2h5.2l0.8 0.8v5.2z" fill="rgba(195,128,99,0.98)"></path>
    </g>
  </svg>